<svg width="256" height="91" viewBox="0 0 256 91" fill="none" xmlns="http://www.w3.org/2000/svg">
<path d="M58.6668 21.932C60.5388 23.12 61.7628 25.064 61.7628 27.62C61.7628 32.084 58.1268 35 53.6268 35H43.0428V9.8H52.9068C57.2988 9.8 60.8628 12.644 60.8628 17C60.8628 19.088 60.0348 20.744 58.6668 21.932ZM52.9068 15.2H48.8028V19.664H52.9068C54.2028 19.664 55.1028 18.728 55.1028 17.432C55.1028 16.136 54.2388 15.2 52.9068 15.2ZM53.6268 29.6C55.0668 29.6 56.0028 28.592 56.0028 27.188C56.0028 25.784 55.0668 24.776 53.6268 24.776H48.8028V29.6H53.6268ZM74.9968 16.496C78.6328 16.496 81.7288 19.088 81.7288 23.948V35H76.3288V24.74C76.3288 22.508 74.9248 21.464 73.1968 21.464C71.2168 21.464 69.8488 22.616 69.8488 25.172V35H64.4488V9.8H69.8488V18.692C70.8208 17.36 72.6208 16.496 74.9968 16.496ZM90.261 28.16C90.945 30.032 92.601 30.68 94.581 30.68C96.057 30.68 97.317 30.104 98.037 29.312L102.357 31.796C100.593 34.244 97.929 35.504 94.509 35.504C88.353 35.504 84.537 31.364 84.537 26C84.537 20.636 88.425 16.496 94.113 16.496C99.369 16.496 103.257 20.564 103.257 26C103.257 26.756 103.185 27.476 103.041 28.16H90.261ZM90.153 24.128H97.893C97.317 22.04 95.697 21.284 94.077 21.284C92.025 21.284 90.657 22.292 90.153 24.128ZM110.968 28.16C111.652 30.032 113.308 30.68 115.288 30.68C116.764 30.68 118.024 30.104 118.744 29.312L123.064 31.796C121.3 34.244 118.636 35.504 115.216 35.504C109.06 35.504 105.244 31.364 105.244 26C105.244 20.636 109.132 16.496 114.82 16.496C120.076 16.496 123.964 20.564 123.964 26C123.964 26.756 123.892 27.476 123.748 28.16H110.968ZM110.86 24.128H118.6C118.024 22.04 116.404 21.284 114.784 21.284C112.732 21.284 111.364 22.292 110.86 24.128ZM131.436 22.256C131.436 24.308 140.292 22.94 140.292 29.6C140.292 33.74 136.692 35.504 132.804 35.504C129.204 35.504 126.468 34.136 125.064 31.22L129.744 28.556C130.212 29.924 131.22 30.68 132.804 30.68C134.1 30.68 134.748 30.284 134.748 29.564C134.748 27.584 125.892 28.628 125.892 22.4C125.892 18.476 129.204 16.496 132.948 16.496C135.864 16.496 138.456 17.792 139.968 20.348L135.36 22.832C134.856 21.896 134.136 21.248 132.948 21.248C132.012 21.248 131.436 21.608 131.436 22.256ZM153.536 16.496C157.172 16.496 160.268 19.088 160.268 23.948V35H154.868V24.74C154.868 22.508 153.464 21.464 151.736 21.464C149.756 21.464 148.388 22.616 148.388 25.172V35H142.988V9.8H148.388V18.692C149.36 17.36 151.16 16.496 153.536 16.496ZM184.136 16.496C188.276 16.496 190.976 19.448 190.976 23.948V35H185.576V24.416C185.576 22.616 184.712 21.464 182.984 21.464C181.184 21.464 180.176 22.724 180.176 24.848V35H174.776V24.416C174.776 22.616 173.912 21.464 172.184 21.464C170.384 21.464 169.376 22.724 169.376 24.848V35H163.976V17H169.376V18.656C170.204 17.432 171.788 16.496 174.2 16.496C176.324 16.496 177.908 17.36 178.916 18.872C179.924 17.432 181.58 16.496 184.136 16.496ZM207.736 17H213.136V35H207.736V33.308C206.548 34.676 204.784 35.504 202.372 35.504C197.656 35.504 193.768 31.364 193.768 26C193.768 20.636 197.656 16.496 202.372 16.496C204.784 16.496 206.548 17.324 207.736 18.692V17ZM203.452 30.392C205.936 30.392 207.736 28.7 207.736 26C207.736 23.3 205.936 21.608 203.452 21.608C200.968 21.608 199.168 23.3 199.168 26C199.168 28.7 200.968 30.392 203.452 30.392ZM29.925 41.2H40.165V86H32.485L15.205 61.68V86H4.965V41.2H12.645L29.925 65.52V41.2ZM70.752 54H80.352V86H70.752V82.992C68.64 85.424 65.504 86.896 61.216 86.896C52.832 86.896 45.92 79.536 45.92 70C45.92 60.464 52.832 53.104 61.216 53.104C65.504 53.104 68.64 54.576 70.752 57.008V54ZM63.136 77.808C67.552 77.808 70.752 74.8 70.752 70C70.752 65.2 67.552 62.192 63.136 62.192C58.72 62.192 55.52 65.2 55.52 70C55.52 74.8 58.72 77.808 63.136 77.808ZM106.147 63.216H99.555V74.544C99.555 77.296 101.923 77.552 106.147 77.296V86C93.603 87.28 89.955 83.504 89.955 74.544V63.216H84.835V54H89.955V47.92L99.555 45.04V54H106.147V63.216ZM132.88 54H142.479V86H132.88V82.992C131.152 85.36 127.952 86.896 123.728 86.896C117.264 86.896 111.76 82.288 111.76 73.648V54H121.36V72.24C121.36 76.208 123.856 78.064 126.928 78.064C130.448 78.064 132.88 76.016 132.88 71.472V54ZM159.12 59.696C160.4 55.408 164.688 53.36 168.72 53.36V64.24C164.752 63.6 159.12 65.2 159.12 71.536V86H149.52V54H159.12V59.696ZM195.502 54H205.102V86H195.502V82.992C193.39 85.424 190.254 86.896 185.966 86.896C177.582 86.896 170.67 79.536 170.67 70C170.67 60.464 177.582 53.104 185.966 53.104C190.254 53.104 193.39 54.576 195.502 57.008V54ZM187.886 77.808C192.302 77.808 195.502 74.8 195.502 70C195.502 65.2 192.302 62.192 187.886 62.192C183.47 62.192 180.27 65.2 180.27 70C180.27 74.8 183.47 77.808 187.886 77.808ZM212.145 86V39.28H221.745V86H212.145ZM237.546 63.344C237.546 66.992 253.29 64.56 253.29 76.4C253.29 83.76 246.89 86.896 239.978 86.896C233.578 86.896 228.714 84.464 226.218 79.28L234.538 74.544C235.37 76.976 237.162 78.32 239.978 78.32C242.282 78.32 243.434 77.616 243.434 76.336C243.434 72.816 227.69 74.672 227.69 63.6C227.69 56.624 233.578 53.104 240.234 53.104C245.418 53.104 250.026 55.408 252.714 59.952L244.522 64.368C243.626 62.704 242.346 61.552 240.234 61.552C238.57 61.552 237.546 62.192 237.546 63.344Z" fill="black"/>
<path d="M218.5 35.5C226.833 33.8333 243.3 26 242.5 8C218.5 15 221 26.3333 218.5 35.5Z" fill="black"/>
</svg>
